# xmcd
# 
# Track frame offsets:
#     150
#     10243
#     16276
#     23884
#     35119
#     45234
#     56050
#     64040
#     75773
#     86098
#     94827
#     106925
#     114438
#     125427
#     134521
#     143291
#     154066
#     163444
#     171495
#     178927
#     186765
#     196715
#     209415
#     220115
#     234821
#     244336
#     250667
#     259217
#     268313
#     279816
#     287752
#     295462
#     303702
#     311319
#     318614
# 
# Disc length: 4434
# 
# Revision: 1
# Processed by: cddbd v1.5.2PL0 Copyright (c) Steve Scherf et al.
# Submitted via: fre:ac v1.0.17
# 
DISCID=f9115023
DTITLE=Jim Reeves - If You Were Mine
DYEAR=0
DGENRE=
TTITLE0=He'll Have To Go
TTITLE1=Have I Told You Lately That I Love You?
TTITLE2=I Know One
TTITLE3=Am I Losing You?
TTITLE4=Anna Marie
TTITLE5=I Love You More
TTITLE6=Waiting For A Train
TTITLE7=Mexican Joe
TTITLE8=I Missed Me
TTITLE9=According To My Heart
TTITLE10=Four Walls
TTITLE11=Bimbo
TTITLE12=When God Dips His Love Into My Heart
TTITLE13=Billy Bayou
TTITLE14=I'd Like To Be
TTITLE15=Peace In The Valley
TTITLE16=I'm Getting Better
TTITLE17=Yonder Comes A Sucker
TTITLE18=Blue Boy
TTITLE19=In A Mansion Stands My Love
TTITLE20=Just Call Me Lonesome
TTITLE21=How's The World Treating You?
TTITLE22=If Heartache Is The Fashion
TTITLE23=Making Believe
TTITLE24=Dear Hearts And Gentle People
TTITLE25=I'm Beginning To Forget You
TTITLE26=If You Were Mine
TTITLE27=Home
TTITLE28=Your Old Love Letters
TTITLE29=Breeze
TTITLE30=Roly Poly
TTITLE31=Wind Up Doll
TTITLE32=Till The End Of The World
TTITLE33=Oklahoma Hills
TTITLE34=Highway To Nowhere
EXTD=
EXTT0=
EXTT1=
EXTT2=
EXTT3=
EXTT4=
EXTT5=
EXTT6=
EXTT7=
EXTT8=
EXTT9=
EXTT10=
EXTT11=
EXTT12=
EXTT13=
EXTT14=
EXTT15=
EXTT16=
EXTT17=
EXTT18=
EXTT19=
EXTT20=
EXTT21=
EXTT22=
EXTT23=
EXTT24=
EXTT25=
EXTT26=
EXTT27=
EXTT28=
EXTT29=
EXTT30=
EXTT31=
EXTT32=
EXTT33=
EXTT34=
PLAYORDER=
